<svg
   width="100%"
   height="100%"
   viewBox="-8 -24 300 312"
   version="1.1"
   id="svg5"
   xml:space="preserve"
   sodipodi:docname="logo.svg"
   inkscape:version="1.2.2 (b0a8486541, 2022-12-01)"
   xmlns:inkscape="http://www.inkscape.org/namespaces/inkscape"
   xmlns:sodipodi="http://sodipodi.sourceforge.net/DTD/sodipodi-0.dtd"
   xmlns="http://www.w3.org/2000/svg"
   xmlns:svg="http://www.w3.org/2000/svg"><sodipodi:namedview
     id="namedview6"
     pagecolor="#ffffff"
     bordercolor="#000000"
     borderopacity="0.25"
     inkscape:showpageshadow="2"
     inkscape:pageopacity="0.0"
     inkscape:pagecheckerboard="0"
     inkscape:deskcolor="#d1d1d1"
     showgrid="false"
     inkscape:zoom="0.65329729"
     inkscape:cx="137.7627"
     inkscape:cy="180.62221"
     inkscape:window-width="1920"
     inkscape:window-height="1060"
     inkscape:window-x="0"
     inkscape:window-y="0"
     inkscape:window-maximized="1"
     inkscape:current-layer="svg5" /><defs
     id="defs2" /><path
     style="fill:#000000;stroke-width:0.352778"
     d="m 83.365364,279.92708 c -0.97827,-0.28164 -1.14705,-0.47225 -0.98701,-1.11471 0.70087,-2.81351 2.01175,-11.01844 2.36637,-14.81133 0.55077,-5.89093 0.23598,-22.22082 -0.5353,-27.76781 -1.16501,-8.3788 -2.44609,-14.9023 -4.61341,-23.49246 -2.45028,-9.71169 -4.02988,-17.20906 -4.98225,-23.64769 -0.85754,-5.79747 -0.85508,-21.2873 0.004,-27.82513 1.55995,-11.86601 4.92229,-21.81261 10.34916,-30.61526 l 2.12778,-3.45136 0.22058,1.3347 c 0.12132,0.73408 0.22233,2.70335 0.22446,4.37616 0.004,2.92215 -0.0647,3.18509 -1.74475,6.70278 -6.45736,13.52047 -8.52681,31.9596 -5.65811,50.41457 0.38956,2.50615 1.80832,9.5219 3.15279,15.59057 5.74039,25.91094 6.50281,31.40182 6.52846,47.01728 0.019,11.57939 -0.15435,13.88537 -1.6047,21.34306 -1.23804,6.36598 -1.23353,6.35475 -2.53548,6.31818 -0.62312,-0.0175 -1.66396,-0.1847 -2.313,-0.37155 z m 102.824886,-2.19106 c -3.22829,-7.90664 -4.2281,-10.06009 -6.2348,-13.42881 -2.82282,-4.73879 -7.55627,-11.05615 -12.62772,-16.85321 -5.61169,-6.4146 -14.14219,-13.97571 -25.79356,-22.86244 -21.40631,-16.327 -29.92175,-23.84265 -36.77302,-32.45555 -2.64305,-3.32265 -5.928226,-8.02434 -5.928226,-8.48437 0,-0.13155 0.73653,-0.34013 1.636726,-0.46351 3.1477,-0.43144 3.39529,-0.35485 4.49876,1.39175 1.68052,2.65996 4.91807,6.38303 10.20661,11.73723 7.83384,7.93112 14.83289,13.64893 29.95687,24.47302 12.91204,9.24104 24.76606,20.46589 32.58685,30.85728 2.92673,3.88872 6.57449,9.78737 8.8028,14.23468 1.94638,3.88462 4.73915,10.80859 4.73915,11.74954 0,0.25665 -0.94168,0.87295 -2.09261,1.36955 l -2.09261,0.90292 z M 272.0468,266.6934 c -3.39548,-2.21412 -8.23736,-5.31837 -10.75972,-6.89833 -2.52236,-1.57996 -8.79298,-5.6763 -13.93472,-9.10299 -21.8183,-14.54073 -44.33193,-27.09013 -60.14862,-33.52767 -11.57449,-4.71093 -34.71275,-14.77755 -39.33472,-17.11312 -9.35158,-4.72553 -15.84349,-9.12162 -21.58369,-14.61569 l -3.28714,-3.1462 3.60696,-0.0156 3.60696,-0.0156 2.74304,2.20774 c 3.62515,2.9177 10.46688,7.23245 16.17524,10.20092 6.03511,3.1384 12.91674,6.19228 29.26944,12.98899 22.95518,9.54091 29.55359,12.69075 42.31781,20.20093 8.91202,5.24365 13.44663,8.1367 26.63472,16.99275 5.52979,3.71337 15.21354,10.05877 21.51944,14.1009 6.3059,4.04213 11.54107,7.42024 11.6337,7.50691 0.16543,0.1548 -1.76349,3.9598 -2.1087,4.15961 -0.097,0.0562 -2.95451,-1.70945 -6.35,-3.92358 z m -276.4801056,-0.56226 -1.46037,-1.4993 0.87474,-1.05833 c 3.8752,-4.68856 14.16311,-18.77965 19.0821596,-26.13637 4.67299,-6.98871 10.83319,-17.73006 15.40114,-26.8545 2.83121,-5.65531 9.34266,-20.26352 11.52456,-25.85496 4.61957,-11.83832 12.94739,-31.40471 17.2827,-40.60605 7.04229,-14.94669 14.00169,-27.02879 19.1087,-33.17427 2.45599,-2.9554 6.89937,-7.59969 8.06509,-8.42976 l 0.92712,-0.66017 0.0518,1.65943 c 0.0285,0.91268 0.14375,2.23395 0.25618,2.93614 0.18545,1.15835 0.0306,1.48134 -1.67089,3.48356 -12.29772,14.47194 -20.80049,30.57504 -35.0782,66.43331 -8.24383,20.70427 -9.59674,23.80525 -15.49754,35.52169 -8.5379,16.95254 -19.37496,34.47224 -28.6953796,46.39028 -2.94624,3.76736 -8.00826,9.34861 -8.4789,9.34861 -0.12789,0 -0.88968,-0.67469 -1.69288,-1.49931 z M 284.7468,205.68406 c -10.85625,-3.2793 -24.96412,-6.29097 -35.27777,-7.53088 -6.55666,-0.78825 -24.04366,-2.14129 -34.39585,-2.66134 -17.47173,-0.87771 -27.8274,-1.84586 -37.78213,-3.53224 -10.7438,-1.82005 -20.74601,-5.04039 -26.77619,-8.62094 l -2.11667,-1.25682 5.17086,-0.0974 c 4.76169,-0.0897 5.35269,-0.029 7.46873,0.76747 3.37693,1.27107 10.46493,3.23994 14.70069,4.08348 7.91488,1.57622 18.90012,2.64377 38.27638,3.71973 35.36305,1.96369 53.64654,4.68122 73.74362,10.96071 l 2.83528,0.8859 -0.54223,2.27366 c -0.29822,1.25051 -0.70097,2.26477 -0.895,2.25391 -0.19402,-0.0109 -2.1784,-0.5712 -4.40972,-1.24521 z M 91.424594,129.34156 V 79.952682 h 50.270816 50.27083 v 49.388878 49.3889 H 141.69541 91.424594 Z m -97.2807796,43.30348 c -0.38023,-0.47462 -1.84977,-3.30938 -1.84977,-3.56824 0,-0.0862 0.91281,-0.66763 2.02847,-1.29202 4.17148,-2.33459 10.03311,-6.71111 15.56214,-11.61929 5.3218696,-4.72427 12.7030496,-13.45142 25.7774196,-30.47795 12.32443,-16.0499 20.26097,-24.36497 31.08831,-32.571058 4.08421,-3.09544 7.54987,-5.22444 11.09045,-6.81299 2.36714,-1.06206 6.59589,-2.47026 7.41807,-2.47026 0.27031,0 0.62165,0.74082 0.84479,1.78125 0.48343,2.25418 0.48057,2.80486 -0.0146,2.80486 -1.30974,0 -10.9518,5.08922 -14.59648,7.70424 -6.67249,4.787428 -11.56843,9.230088 -17.88129,16.225788 -4.83615,5.35927 -7.41134,8.50464 -18.64792,22.77684 -16.32268,20.73235 -27.4676196,31.54493 -37.9850296,36.85226 -2.52932,1.27635 -2.37512,1.24009 -2.83459,0.66657 z M 196.40213,164.38392 c -0.12414,-0.3235 -0.30877,-1.47444 -0.41028,-2.55764 l -0.18458,-1.96944 2.29658,-1.52697 c 4.92431,-3.27411 12.72571,-11.50083 19.7774,-20.85562 5.12045,-6.79282 8.93677,-12.58367 15.35263,-23.29595 5.71659,-9.54474 6.71102,-11.09154 10.89037,-16.939518 6.89846,-9.65272 11.79742,-15.61496 18.37039,-22.35754 6.73517,-6.90896 12.54928,-11.42878 18.54799,-14.41898 3.92018,-1.95412 3.76957,-1.96252 4.86521,0.27146 0.5256,1.07166 0.95563,2.00456 0.95563,2.0731 0,0.0686 -1.70656,1.08255 -3.79236,2.25334 -10.51228,5.90071 -22.549,17.65708 -32.83661,32.07181 -2.77014,3.881468 -9.86287,14.917158 -16.73352,26.035978 -5.92883,9.59468 -9.6272,15.00992 -14.65439,21.45733 -4.88872,6.26981 -7.61949,9.26606 -12.00886,13.17634 -3.0157,2.68655 -9.21773,7.17049 -9.91797,7.17049 -0.16056,0 -0.39349,-0.26468 -0.51763,-0.58819 z m -1.26089,-22.98985 v -3.61291 l 2.05268,-3.07327 c 3.37462,-5.05251 5.63022,-8.98363 7.98798,-13.9217 4.47148,-9.36503 7.07664,-17.33981 12.18689,-37.305738 7.10047,-27.74186 8.83465,-33.77029 12.78673,-44.44999 4.75747,-12.8561 8.63734,-20.57927 15.5957,-31.0444397 4.58642,-6.89786 6.77173,-9.73401 11.78728,-15.29786 5.09324,-5.6500403 14.80075,-14.5534503 15.55577,-14.2672503 0.46772,0.1773 2.86769,3.18384 2.75795,3.45499 -0.0557,0.13761 -1.83886,1.82474 -3.96261,3.74919 -6.19432,5.6130503 -14.50519,15.03017027 -20.22476,22.9168603 -4.5334,6.2510897 -11.38446,18.9484297 -14.49692,26.8677197 -3.82233,9.72549 -9.26769,27.91824 -13.96591,46.65967 -5.19617,20.727728 -12.34665,40.221408 -18.47074,50.355048 -2.43399,4.02756 -6.43702,9.5198 -8.15444,11.18807 l -1.4356,1.39451 z m -0.47011,-21.95642 c -0.41304,-7.16898 -0.31198,-8.69036 0.84186,-12.67387 2.28797,-7.898938 3.37064,-17.564048 3.04287,-27.163878 -0.32735,-9.58748 -1.35779,-15.2115 -6.10814,-33.3375 -3.41487,-13.03014 -3.78436,-14.64603 -4.96101,-21.69583 -0.92353,-5.53323 -0.97189,-6.40475 -0.97868,-17.6388897 -0.004,-7.31454003 0.16704,-13.43125 0.44996,-16.05139 0.47102,-4.3622603 2.08172,-14.3007803 2.36331,-14.5823703 0.16688,-0.16687 4.07226,0.54627 4.3137,0.78771 0.077,0.077 -0.18913,1.95156 -0.59151,4.16558 -1.27204,6.9993 -1.82519,13.7599003 -1.82696,22.3290803 -0.003,15.0553097 1.74288,26.0315097 7.09877,44.6263897 6.03192,20.94197 6.79573,40.11209 2.30596,57.875058 -0.70332,2.78252 -4.12107,13.27527 -5.38583,16.53491 -0.25278,0.65148 -0.38751,-0.10657 -0.5643,-3.175 z M 123.52736,75.681112 c -2.94777,-1.3294 -9.33657,-3.07115 -15.8867,-4.33114 -13.425056,-2.58245 -15.507736,-2.78618 -38.264676,-3.7431 -22.23134,-0.93482 -33.28771,-1.7471 -43.56806,-3.2008 -7.70693,-1.0898 -29.4318396,-5.21858 -32.5652996,-6.18898 -0.55712,-0.17253 -0.60843,-0.45365 -0.40077,-2.19572 0.13099,-1.09882 0.34686,-2.11671 0.47971,-2.26198 0.13286,-0.14527 3.64695,0.37521 7.8091,1.15662 31.7936596,5.969 36.5574496,6.52656 66.2023996,7.74841 27.08811,1.11647 29.74434,1.38849 43.494296,4.45423 8.35463,1.86277 16.28558,4.36815 20.60828,6.51013 5.04661,2.5007 4.98224,2.65661 -1.12172,2.71691 -4.53685,0.0448 -5.40127,-0.0398 -6.78656,-0.66458 z m 30.86805,-1.18575 c -4.00974,-3.64582 -12.95635,-9.05785 -21.34305,-12.91094 -5.25022,-2.4121 -20.37494,-8.53472 -30.0063,-12.14681 C 77.223034,39.753072 72.125684,37.096082 45.916264,19.658752 36.699944,13.527062 23.126814,4.7968623 15.753764,0.25830227 8.3807044,-4.2802577 2.1512044,-8.1727577 1.9104144,-8.3916977 c -0.34278,-0.31168 -0.16847,-0.79801 0.80312,-2.2407303 0.6825,-1.01347 1.30612,-1.84266 1.38581,-1.84266 0.3138,0 15.5519796,9.2760103 21.7103396,13.21584027 3.58855,2.29579003 12.47776,8.09978003 19.7538,12.89775973 24.47709,16.14074 31.21678,19.8243 49.38888,26.99336 3.58952,1.4161 12.162006,4.7943 19.049996,7.50712 15.11081,5.95135 19.39972,7.79431 26.19923,11.25788 8.06676,4.10909 14.61139,8.60585 20.8966,14.35787 l 2.11667,1.9371 -1.23473,0.0163 c -0.67909,0.009 -2.26659,0.10059 -3.52777,0.20366 l -2.29306,0.18741 z m 21.51944,-3.26577 c -3.91061,-5.25111 -14.51397,-15.8064 -21.3861,-21.28915 -3.03111,-2.41829 -9.38111,-7.16332 -14.11111,-10.5445 -10.97158,-7.8429 -14.20266,-10.28228 -20.06528,-15.14882 -15.00463,-12.45529 -25.304686,-24.53415973 -31.560316,-37.01077 -1.45959,-2.91108 -3.71745,-8.34003 -3.71745,-8.93847 0,-0.21199 3.57889,-1.70908 4.08568,-1.70908 0.0983,0 1.33504,2.42093 2.7484,5.37986 2.67197,5.59385 5.18942,9.8788103 7.92766,13.4937403 3.424076,4.52032997 9.371576,11.15723 14.389616,16.0575997 8.39222,8.19543 13.08854,12.06642 25.92782,21.37126 18.95942,13.74022 28.10868,21.58615 35.94751,30.82673 3.24645,3.82697 8.26921,10.54819 8.04299,10.76274 -0.0635,0.0603 -1.30615,0.20608 -2.76136,0.32403 l -2.64583,0.21446 z"
     id="path2748" /></svg>
